<svg id="图层_1" data-name="图层 1" xmlns="http://www.w3.org/2000/svg" viewBox="0 0 1886.05 372.57"><defs><style>.cls-1{fill:#fff;}.cls-2{fill:#eb5c01;}</style></defs><path class="cls-1" d="M1349,16.32H1292.1V246.19h0v2.32h0v2.16c-.26,11-4,21.81-12.22,30.22-11.51,11.82-25.85,17.85-43,18.2-.56,0-1.11,0-1.68,0v.28h0v-.28c-.6,0-1.16,0-1.75,0-17.13-.34-31.48-6.37-43-18.2-7.85-8.05-11.58-18.32-12.14-28.81v-3.57h0v-2.32h0V16.32h-56.9V248.51h.06l0,4.24a88.48,88.48,0,0,0,24.94,62.57q34.75,35.7,86.72,36.22h4.18q52-.57,86.72-36.22A88.48,88.48,0,0,0,1349,252.75l0-4.24h0Z"/><path class="cls-1" d="M411.32,203.54a97.14,97.14,0,0,0,38.11-22.19,93.2,93.2,0,0,0,17.82-22.48c8.7-15.37,12.52-33,11.24-52.89a92.37,92.37,0,0,0-22.94-55q-30.18-34.08-74.83-34.61H279.47V351.54h56.89V208.11l27.58-.07,70,143.5H483.7Zm-27.83-43.08A62.3,62.3,0,0,1,375,161l-38.61-.1v0H336v-2l.35-95.41h0v-.1l41.11-.11c11.34,0,22.76,2.9,31.61,9.63q18.14,13.82,18.2,37.8.11,32.72-27.27,45.7a40,40,0,0,1-7.17,2.49A52.51,52.51,0,0,1,383.49,160.46Z"/><path class="cls-1" d="M1514.88,203.54A97.07,97.07,0,0,0,1553,181.35a93.25,93.25,0,0,0,17.83-22.48c8.7-15.37,12.51-33,11.24-52.89a92.38,92.38,0,0,0-23-55q-30.18-34.08-74.82-34.61H1383V351.54h56.9V208.11l27.57-.07,70,143.5h49.72Zm-18.48-44.67a52.36,52.36,0,0,1-9.35,1.59,62.2,62.2,0,0,1-8.52.55l-38.6-.1v0h-.38v-2l.34-95.41h0v-.1l41.11-.11c11.33,0,22.75,2.9,31.6,9.63q18.13,13.82,18.2,37.8.11,32.72-27.26,45.7A40.4,40.4,0,0,1,1496.4,158.87Z"/><polygon class="cls-1" points="256.57 351.41 165.72 16.32 148.4 16.32 148.39 16.32 131.59 16.32 40.56 351.49 97.47 351.49 148.35 158.89 199.84 351.55 256.57 351.41"/><polygon class="cls-1" points="927.85 351.41 837 16.32 802.87 16.32 711.84 351.49 768.75 351.49 819.63 158.89 871.11 351.55 927.85 351.41"/><polygon class="cls-1" points="1826.71 351.41 1735.87 16.32 1718.54 16.32 1718.53 16.32 1701.73 16.32 1610.7 351.49 1667.61 351.49 1718.49 158.89 1769.98 351.55 1826.71 351.41"/><polygon class="cls-2" points="148.65 351.51 182.92 288.69 114.38 288.69 148.65 351.51"/><polygon class="cls-2" points="819.92 351.51 854.19 288.69 785.65 288.69 819.92 351.51"/><polygon class="cls-2" points="1718.79 351.51 1753.06 288.69 1684.52 288.69 1718.79 351.51"/><polygon class="cls-1" points="643.59 16.32 598.1 158 598.07 158 552.57 16.32 506.86 16.32 506.86 351.54 552.46 351.54 552.46 168.34 583.88 267.71 612.24 267.71 643.4 169.24 643.4 351.54 689.1 351.54 689.1 16.32 643.59 16.32"/><polygon class="cls-1" points="1098.6 16.32 905.28 16.32 905.28 68.98 973.46 68.98 973.46 351.54 1030.42 351.54 1030.42 68.98 1098.6 68.98 1098.6 16.32"/></svg>